<?xml version="1.0" encoding="utf-8"?>
<!-- Generator: Adobe Illustrator 16.0.0, SVG Export Plug-In . SVG Version: 6.00 Build 0)  -->
<!DOCTYPE svg PUBLIC "-//W3C//DTD SVG 1.1//EN" "http://www.w3.org/Graphics/SVG/1.1/DTD/svg11.dtd">
<svg version="1.1" id="Layer_1" xmlns="http://www.w3.org/2000/svg" xmlns:xlink="http://www.w3.org/1999/xlink" x="0px" y="0px"
	 width="480px" height="480px" viewBox="0 0 480 480" enable-background="new 0 0 480 480" xml:space="preserve">
<g>
	<path fill-rule="evenodd" clip-rule="evenodd" d="M21.74,454.401c0-146.978,0-293.461,0-441.284c147.214,0,293.558,0,441.565,0
		c0,146.901,0,293.3,0,441.081c-41.699,0-83.453,0-127.122,0c-0.55-4.75-1.184-10.246-2.113-18.267c37.183,0,72.859,0,109.319,0
		c0-135.515,0-268.652,0-403.053c-134.029,0-267.043,0-401.168,0c0,134.28,0,267.421,0,402.273c53.049,0,105.501,0,159.623,0
		c0.703,6.994,1.254,12.453,1.939,19.249C142.463,454.401,82.73,454.401,21.74,454.401z"/>
	<path fill-rule="evenodd" clip-rule="evenodd" d="M161.868,325.312c41.586-0.935,78.519,3.192,94.681-43.287
		c-32.803,0-63.497,0-97.309,0c20.672-44.944,59.227-15.403,85.127-28.004c-8.674-13.906-8.674-13.906-82.847-23.588
		c4.884-15.831,13.449-23.41,31.489-22.94c46.552,1.212,93.16,0.407,140.6,0.407c-5.589,33.271-31.582,21.773-56.916,26.048
		c9.612,9.582,15.357,19.549,23.574,22.404c9.893,3.435,21.883,0.814,34.972,0.814c-7.167,17.628-15.047,28.038-33.321,25.754
		c-4.001-0.5-11.384,2.934-12.523,6.188c-12.92,36.971-43.298,49.385-80.222,56.161c30.803,37.467,60.238,73.265,91.329,111.089
		c-21.462,4.591-37.382,5.759-51.52-12.46c-22.454-28.934-47.944-55.495-70.959-84.024
		C171.23,351.458,168.45,339.805,161.868,325.312z"/>
</g>
</svg>
