<?xml version="1.0" encoding="utf-8"?>
<!-- Generator: Adobe Illustrator 16.0.0, SVG Export Plug-In . SVG Version: 6.00 Build 0)  -->
<!DOCTYPE svg PUBLIC "-//W3C//DTD SVG 1.1//EN" "http://www.w3.org/Graphics/SVG/1.1/DTD/svg11.dtd">
<svg version="1.1" id="Layer_1" xmlns="http://www.w3.org/2000/svg" xmlns:xlink="http://www.w3.org/1999/xlink" x="0px" y="0px"
	 width="480px" height="480px" viewBox="0 0 480 480" enable-background="new 0 0 480 480" xml:space="preserve">
<g>
	<path fill-rule="evenodd" clip-rule="evenodd" fill="#FFFFFF" d="M166.569,371.547c0-3.398-0.216-6.813,0.057-10.188
		c0.328-4.068-1.236-6.313-5.22-7.285c-26.76-6.515-50.46-19.382-72.469-35.536c-4.216-3.095-6.692-2.27-10.318,0.83
		c-19.152,16.362-38.47,32.533-57.874,48.597c-15.957,13.211-16.59,28.849-2.089,43.996c19.126,19.98,42.342,33.789,67.518,44.169
		c15.827,6.524,32.208,12.396,49.883,11.825c15.305-0.493,26.335-9.112,26.561-22.758
		C163.026,420.577,165.359,396.099,166.569,371.547z M170.347,265.653c3.822-2.382,7.446-6.395,6.898-10.049
		c-1.251-8.358,3.446-14.162,6.651-20.539c30.583-60.861,61.336-121.635,92.103-182.402c3.464-6.84,7.189-13.554,11.024-20.193
		c2.164-3.746,1.331-6.5-2.121-8.546c-3.548-2.104-5.803,0.316-7.774,2.802c-0.945,1.191-1.562,2.653-2.261,4.025
		c-15.252,29.887-30.514,59.769-45.731,89.673c-20.133,39.564-40.226,79.149-60.353,118.715c-1.365,2.684-2.456,5.228-5.79,6.712
		c-4.826,2.148-7.977,7.533-6.158,11.892C158.774,262.392,165.348,263.146,170.347,265.653z M170.306,313.799
		c0.359-4.667-0.793-9.102-1.621-13.653c-2.869-15.782-24.902-27.604-38.748-20.396c-11.267,5.863-20.295,14.784-30.245,22.444
		c-2.565,1.976-3.742,4.266-0.381,6.602c19.294,13.418,39.686,24.667,62.483,30.972c3.027,0.838,6.271,0.595,6.607-4.016
		C168.935,328.425,169.66,321.114,170.306,313.799z M154.276,265.993c-1.151,0.737-4.596-1.552-5.293,1.904
		c-0.495,2.451,2.315,3.192,4.139,4.156c2.415,1.274,4.777,2.794,7.352,3.586c2.427,0.746,5.24,5.27,7.5,0.776
		c1.768-3.519-1.283-6.217-4.204-8.115C161.185,266.621,158.359,265.534,154.276,265.993z"/>
	<path fill-rule="evenodd" clip-rule="evenodd" d="M166.569,371.547c-1.209,24.552-3.542,49.03-3.951,73.649
		c-0.226,13.646-11.256,22.265-26.561,22.758c-17.674,0.57-34.056-5.301-49.883-11.825c-25.176-10.38-48.392-24.188-67.518-44.169
		c-14.5-15.147-13.868-30.785,2.089-43.996c19.403-16.063,38.721-32.234,57.874-48.597c3.626-3.1,6.103-3.925,10.318-0.83
		c22.008,16.154,45.708,29.021,72.469,35.536c3.984,0.972,5.548,3.217,5.22,7.285C166.353,364.733,166.569,368.148,166.569,371.547z
		"/>
	<path fill-rule="evenodd" clip-rule="evenodd" d="M170.347,265.653c-4.999-2.507-11.572-3.262-13.512-7.909
		c-1.819-4.358,1.332-9.743,6.158-11.892c3.333-1.484,4.425-4.028,5.79-6.712c20.127-39.566,40.22-79.151,60.353-118.715
		c15.218-29.905,30.479-59.787,45.731-89.673c0.699-1.373,1.315-2.834,2.261-4.025c1.972-2.486,4.227-4.906,7.774-2.802
		c3.452,2.045,4.285,4.8,2.121,8.546c-3.835,6.639-7.561,13.353-11.024,20.193c-30.767,60.767-61.52,121.541-92.103,182.402
		c-3.205,6.376-7.902,12.18-6.651,20.539C177.792,259.259,174.168,263.271,170.347,265.653z"/>
	<path fill-rule="evenodd" clip-rule="evenodd" d="M170.306,313.799c-0.646,7.315-1.371,14.626-1.905,21.952
		c-0.336,4.61-3.58,4.854-6.607,4.016c-22.797-6.305-43.189-17.554-62.483-30.972c-3.361-2.336-2.184-4.626,0.381-6.602
		c9.95-7.66,18.979-16.581,30.245-22.444c13.846-7.208,35.879,4.614,38.748,20.396C169.513,304.697,170.665,309.132,170.306,313.799
		z"/>
	<path fill-rule="evenodd" clip-rule="evenodd" d="M154.276,265.993c4.083-0.459,6.909,0.628,9.493,2.308
		c2.921,1.898,5.971,4.597,4.204,8.115c-2.259,4.493-5.072-0.03-7.5-0.776c-2.575-0.792-4.937-2.312-7.352-3.586
		c-1.824-0.964-4.633-1.705-4.139-4.156C149.68,264.441,153.125,266.73,154.276,265.993z"/>
</g>
<g>
	<path fill-rule="evenodd" clip-rule="evenodd" d="M364.986,218.092c28.657,0,57.32,0.398,85.964-0.2
		c11.06-0.231,12.983,4.109,12.09,14.064c-3.329,37.063-5.862,74.197-8.796,111.299c-2.193,27.726-3.838,55.52-7.056,83.129
		c-2.347,20.131-17.528,33.095-37.796,33.423c-30.217,0.488-60.454,0.469-90.674,0.013c-20.47-0.306-35.611-13.056-38.033-33.107
		c-3.146-26.039-4.801-52.262-6.869-78.424c-3.057-38.663-5.617-77.369-9.048-115.998c-0.953-10.748,1.752-14.687,13.077-14.426
		C306.881,218.535,335.938,218.088,364.986,218.092z M405.206,410.507c-0.137-0.006-0.274-0.009-0.413-0.013
		c0,6.678-0.353,13.386,0.201,20.017c0.183,2.171,2.731,4.146,4.194,6.21c2.048-1.895,5.409-3.502,5.891-5.733
		c1.404-6.479,1.941-13.19,2.302-19.837c1.619-29.775,3.127-59.556,4.538-89.342c0.985-20.775,2.083-41.559,2.301-62.345
		c0.038-3.629-4.044-7.301-6.225-10.949c-2.645,3.388-5.458,6.662-7.836,10.228c-0.765,1.146-0.458,3.06-0.505,4.624
		C408.162,312.412,406.685,361.461,405.206,410.507z M323.133,411.654c-0.168,0.006-0.339,0.009-0.508,0.016
		c-1.45-49.008-2.879-98.015-4.408-147.02c-0.097-3.101-0.294-6.553-1.709-9.157c-1.474-2.713-4.478-4.594-6.814-6.837
		c-2.052,2.507-4.596,4.775-5.986,7.607c-0.942,1.915-0.397,4.63-0.288,6.978c2.429,52.484,4.865,104.966,7.398,157.445
		c0.169,3.5,0.513,7.243,1.924,10.354c1.056,2.326,3.96,3.814,6.041,5.678c1.451-2.072,3.952-4.052,4.151-6.241
		C323.502,424.249,323.133,417.935,323.133,411.654z M370.273,342.595c0.082,0,0.165,0,0.246,0c0-27.881,0.206-55.765-0.263-83.635
		c-0.06-3.43-3.731-6.799-5.729-10.194c-2.368,3.418-4.921,6.727-6.995,10.313c-0.685,1.183-0.157,3.078-0.156,4.648
		c0.1,53.011,0.179,106.022,0.354,159.032c0.013,3.471-0.388,8.083,1.55,10.051c1.651,1.679,7.76,1.647,9.415-0.05
		c1.932-1.982,1.512-6.591,1.524-10.061C370.319,395.999,370.273,369.296,370.273,342.595z"/>
	<path fill-rule="evenodd" clip-rule="evenodd" d="M364.092,210.163c-32.558,0.001-65.12,0.188-97.674-0.181
		c-5.398-0.062-13.672,3.854-15.239-5.93c-1.316-8.212,7.11-18.258,16.052-18.668c13.702-0.626,27.471-0.722,41.171-0.124
		c8.799,0.383,13.451-2.116,17.989-10.482c3.264-6.019,12.135-11.212,19.245-12.43c11.813-2.024,24.23-0.719,36.385-0.514
		c10.598,0.18,18.097,5.699,21.341,15.503c2.211,6.686,6.081,7.984,12.271,7.847c13.722-0.31,27.515-0.802,41.158,0.279
		c5.53,0.439,11.864,3.711,15.748,7.713c2.901,2.989,3.481,9.345,2.922,13.937c-0.178,1.454-7.356,2.889-11.339,2.917
		C430.779,210.261,397.436,210.159,364.092,210.163z"/>
	<path fill-rule="evenodd" clip-rule="evenodd" fill="#FFFFFF" d="M405.206,410.507c1.479-49.046,2.956-98.095,4.448-147.141
		c0.047-1.564-0.26-3.478,0.505-4.624c2.378-3.565,5.191-6.84,7.836-10.228c2.181,3.648,6.263,7.32,6.225,10.949
		c-0.218,20.786-1.315,41.569-2.301,62.345c-1.411,29.786-2.919,59.566-4.538,89.342c-0.36,6.646-0.897,13.358-2.302,19.837
		c-0.481,2.231-3.843,3.839-5.891,5.733c-1.463-2.064-4.012-4.039-4.194-6.21c-0.554-6.631-0.201-13.339-0.201-20.017
		C404.932,410.498,405.069,410.501,405.206,410.507z"/>
	<path fill-rule="evenodd" clip-rule="evenodd" fill="#FFFFFF" d="M323.133,411.654c0,6.28,0.369,12.595-0.199,18.822
		c-0.199,2.189-2.7,4.169-4.151,6.241c-2.081-1.863-4.985-3.352-6.041-5.678c-1.411-3.11-1.755-6.854-1.924-10.354
		c-2.533-52.479-4.97-104.961-7.398-157.445c-0.109-2.348-0.654-5.063,0.288-6.978c1.391-2.832,3.935-5.101,5.986-7.607
		c2.337,2.243,5.341,4.124,6.814,6.837c1.415,2.604,1.612,6.057,1.709,9.157c1.529,49.005,2.958,98.012,4.408,147.02
		C322.794,411.663,322.965,411.66,323.133,411.654z"/>
	<path fill-rule="evenodd" clip-rule="evenodd" fill="#FFFFFF" d="M370.273,342.595c0,26.701,0.046,53.404-0.054,80.104
		c-0.013,3.47,0.407,8.078-1.524,10.061c-1.655,1.697-7.764,1.729-9.415,0.05c-1.938-1.968-1.537-6.58-1.55-10.051
		c-0.175-53.01-0.254-106.021-0.354-159.032c-0.001-1.57-0.528-3.466,0.156-4.648c2.074-3.586,4.627-6.895,6.995-10.313
		c1.997,3.396,5.669,6.765,5.729,10.194c0.469,27.87,0.263,55.754,0.263,83.635C370.438,342.595,370.355,342.595,370.273,342.595z"
		/>
</g>
</svg>
