<?xml version="1.0" encoding="utf-8"?>
<!-- Generator: Adobe Illustrator 16.0.0, SVG Export Plug-In . SVG Version: 6.00 Build 0)  -->
<!DOCTYPE svg PUBLIC "-//W3C//DTD SVG 1.1//EN" "http://www.w3.org/Graphics/SVG/1.1/DTD/svg11.dtd">
<svg version="1.1" id="Layer_1" xmlns="http://www.w3.org/2000/svg" xmlns:xlink="http://www.w3.org/1999/xlink" x="0px" y="0px"
	 width="480px" height="480px" viewBox="0 0 480 480" enable-background="new 0 0 480 480" xml:space="preserve">
<g>
	<path fill-rule="evenodd" clip-rule="evenodd" d="M444.139,460c-57.109,0-111.655,0-166.201,0c-10.921,0-21.846,0-36.059,0
		c0-30.079,0-57.43,0-89.378c-36.969,0-70.818,0-106.075,0c-1.82-16.321-3.145-28.203-5.201-46.682
		c-21.924,0-44.753-0.919-67.47,0.274c-19.897,1.047-28.964-6.138-28.109-26.621c0.837-20.044,0.204-40.153,0.065-60.23
		c-0.219-32.129,1.772-63.803,35.182-80.582c32.864-16.501,60.025-3.086,83.102,20.151c56.17-29.553,79.036-26.049,118.215,13.716
		c29.91-5.314,56.6-14.376,83.08-13.807c46.438,0.993,86.246,38.071,88.637,84.514C446.619,325.692,444.139,390.329,444.139,460z"/>
	<path fill-rule="evenodd" clip-rule="evenodd" d="M267.72,86.513c-0.017-42.014,34.394-76.503,75.95-76.124
		c41.631,0.38,74.726,34.75,74.701,77.582c-0.023,41.84-34.885,76.799-76.019,76.231C300.718,163.626,267.736,129.295,267.72,86.513
		z"/>
	<path fill-rule="evenodd" clip-rule="evenodd" d="M152.844,93.538c-0.209-30.416,23.839-55.258,54.135-55.926
		c31.236-0.689,56.268,25.124,55.938,57.684c-0.32,31.174-23.813,55.399-54.192,55.876
		C177.25,151.669,153.07,126.731,152.844,93.538z"/>
	<path fill-rule="evenodd" clip-rule="evenodd" d="M145.908,97.986c0.173,24.886-21.485,46.574-46.597,46.663
		c-25.927,0.092-46.476-20.283-46.445-46.054c0.026-24.836,21.648-46.969,46.21-47.299C123.7,50.965,145.735,72.935,145.908,97.986z
		"/>
</g>
</svg>
