<?xml version="1.0" encoding="utf-8"?>
<!-- Generator: Adobe Illustrator 16.0.0, SVG Export Plug-In . SVG Version: 6.00 Build 0)  -->
<!DOCTYPE svg PUBLIC "-//W3C//DTD SVG 1.1//EN" "http://www.w3.org/Graphics/SVG/1.1/DTD/svg11.dtd">
<svg version="1.1" id="Layer_1" xmlns="http://www.w3.org/2000/svg" xmlns:xlink="http://www.w3.org/1999/xlink" x="0px" y="0px"
	 width="480px" height="480px" viewBox="0 0 480 480" enable-background="new 0 0 480 480" xml:space="preserve">
<g>
	<path fill-rule="evenodd" clip-rule="evenodd" d="M219.704,11.731c15.267,0,30.529,0,45.796,0c1.667,0.599,3.295,1.536,5.011,1.746
		c93.456,11.442,170.818,81.571,190.965,173.225c1.939,8.823,3.688,17.685,5.524,26.529c0,15.266,0,30.529,0,45.795
		c-1.215,5.896-2.622,11.76-3.615,17.695c-19.982,119.526-139.204,203.016-259.162,181.445
		C83.327,436.428,2.001,326.104,20.332,204.388C34.327,111.462,89.167,50.778,178.079,21.14
		C191.508,16.663,205.808,14.802,219.704,11.731z M271.178,168.856c-26.435,0-51.574,0-76.64,0c0,6.573,0,12.461,0,19.116
		c9.755,0,18.78,0,28.011,0c0,45.76,0,90.726,0,136.893c-9.764,0-19.007,0-28.095,0c0,6.837,0,12.46,0,18.082
		c35.572,0,70.479,0,105.532,0c0-6.225,0-11.844,0-18.65c-9.787,0-19.038,0-28.809,0
		C271.178,271.909,271.178,220.724,271.178,168.856z M271.206,124.306c0.094-13.595-10.62-24.593-23.985-24.622
		c-13.374-0.03-24.128,10.916-24.078,24.508c0.048,13.306,10.213,23.649,23.506,23.917
		C260.305,148.387,271.113,137.911,271.206,124.306z"/>
</g>
</svg>
