<?xml version="1.0" encoding="utf-8"?>
<!-- Generator: Adobe Illustrator 16.0.0, SVG Export Plug-In . SVG Version: 6.00 Build 0)  -->
<!DOCTYPE svg PUBLIC "-//W3C//DTD SVG 1.1//EN" "http://www.w3.org/Graphics/SVG/1.1/DTD/svg11.dtd">
<svg version="1.1" id="Layer_1" xmlns="http://www.w3.org/2000/svg" xmlns:xlink="http://www.w3.org/1999/xlink" x="0px" y="0px"
	 width="480px" height="480px" viewBox="0 0 480 480" enable-background="new 0 0 480 480" xml:space="preserve">
<g>
	<path fill-rule="evenodd" clip-rule="evenodd" d="M454.891,233.281c0,68.109-0.184,136.224,0.2,204.332
		c0.058,9.952-2.494,13.175-12.884,13.148c-137.077-0.336-274.157-0.346-411.236,0.011c-10.968,0.03-13.478-3.476-13.454-13.88
		c0.313-136.65,0.318-273.301-0.006-409.952C17.485,16.43,20.194,13.116,31.05,13.144c137.079,0.35,274.158,0.348,411.235-0.002
		c10.529-0.026,12.85,3.422,12.795,13.235C454.72,95.343,454.891,164.313,454.891,233.281z M53.735,231.971
		c0,56.554,0.221,113.111-0.209,169.663c-0.077,10.002,2.564,13.277,12.918,13.129c40.266-0.574,80.551-0.64,120.813,0.028
		c11.295,0.186,13.464-3.969,13.25-14.115c-0.594-28.268,0.044-56.554-0.357-84.824c-0.117-8.508,1.839-12.444,11.329-12.062
		c16.683,0.677,33.424,0.578,50.115,0.031c8.629-0.287,10.972,2.991,10.863,11.203c-0.384,29.13,0.223,58.273-0.355,87.396
		c-0.192,9.697,2.885,12.42,12.425,12.311c40.269-0.477,80.55-0.543,120.817,0.026c10.576,0.15,13.798-2.772,13.765-13.584
		c-0.374-112.682-0.351-225.363-0.027-338.041c0.029-10.26-2.214-14.032-13.342-13.994c-113.107,0.398-226.221,0.38-339.328,0.017
		c-10.389-0.033-12.959,3.196-12.883,13.152C53.952,118.859,53.735,175.416,53.735,231.971z"/>
	<path fill-rule="evenodd" clip-rule="evenodd" d="M347.393,85.403c9.674,0.927,24.921-5.042,32.549,2.201
		c8.313,7.89,2.645,23.469,2.784,35.649c0.42,36.679,0.151,36.681-37.058,36.681c-8.118,0-16.261-0.411-24.346,0.109
		c-8.728,0.562-12.891-3.192-12.933-11.671c-0.081-18.372,0.092-36.746-0.102-55.113c-0.068-6.349,3.047-8.048,8.728-7.917
		C326.411,85.563,335.814,85.403,347.393,85.403z"/>
	<path fill-rule="evenodd" clip-rule="evenodd" d="M344.083,378.523c-9.845-0.898-25.166,5.021-32.77-2.179
		c-8.273-7.834-2.21-23.485-2.905-35.695c-0.436-7.683,0.407-15.448-0.197-23.105c-0.824-10.423,4.412-13.681,13.734-13.598
		c15.842,0.138,31.685,0.138,47.524,0c9.486-0.083,13.959,3.589,13.575,13.823c-0.625,16.674-0.564,33.401-0.009,50.081
		c0.286,8.66-3.035,11.316-11.23,10.792C363.276,378.104,354.687,378.523,344.083,378.523z"/>
	<path fill-rule="evenodd" clip-rule="evenodd" d="M125.64,85.389c8.568-0.001,17.16,0.412,25.692-0.115
		c8.818-0.543,12.838,3.383,12.891,11.799c0.096,16.275,0.32,32.56-0.092,48.825c-0.219,8.628-3.833,14.449-14.16,14.16
		c-16.691-0.469-33.414-0.453-50.105,0.015c-7.972,0.224-10.434-2.754-10.257-10.466c0.412-17.979,0.424-35.983-0.003-53.963
		c-0.185-7.805,2.457-10.838,10.341-10.369C108.484,85.785,117.074,85.391,125.64,85.389z"/>
	<path fill-rule="evenodd" clip-rule="evenodd" d="M123.185,378.522c-9.31-1.38-23.777,5.087-31.247-2.772
		c-6.809-7.167-1.759-21.255-2.129-32.282c-0.332-9.831,0.053-19.685-0.094-29.525c-0.105-7.045,3.194-10.054,10.146-9.993
		c16.691,0.139,33.382-0.043,50.073,0.095c8.583,0.07,13.997,4.514,14.192,13.206c0.375,16.681,0.245,33.38,0.05,50.068
		c-0.087,7.598-3.64,11.746-12.019,11.311C143.194,378.161,134.187,378.522,123.185,378.522z"/>
	<path fill-rule="evenodd" clip-rule="evenodd" d="M272.297,124.592c-1.029,9.683,5.114,24.954-2.309,32.515
		c-7.998,8.148-23.518,2.533-35.714,2.682c-33.968,0.419-33.971,0.146-33.971-33.712c0-9.398,0.511-18.833-0.146-28.185
		c-0.641-9.134,1.8-13.177,11.916-12.715c17.053,0.777,34.169,0.396,51.253,0.133c6.556-0.103,9.302,2.251,9.056,8.943
		C272.041,103.64,272.297,113.047,272.297,124.592z"/>
	<path fill-rule="evenodd" clip-rule="evenodd" d="M123.917,267.958c-9.374-0.983-24.036,4.892-31.404-2.269
		c-7.989-7.768-2.528-22.722-2.523-34.475c0.006-11.301-5.365-25.768,2.609-33.146c7.209-6.67,21.251-1.684,32.27-2.054
		c8.959-0.303,17.975,0.449,26.899-0.203c9.125-0.666,13.203,1.778,12.729,11.905c-0.779,16.625-0.51,33.319-0.083,49.97
		c0.198,7.735-2.372,10.824-10.278,10.392C144.766,267.565,135.346,267.958,123.917,267.958z"/>
	<path fill-rule="evenodd" clip-rule="evenodd" d="M345.194,267.958c-8.544,0.002-17.11-0.386-25.626,0.114
		c-7.951,0.465-11.701-1.709-11.4-10.583c0.569-17.07,0.456-34.179,0.033-51.257c-0.19-7.723,2.344-10.614,10.262-10.417
		c17.93,0.447,35.885,0.375,53.82,0.026c7.342-0.141,10.965,1.664,10.736,9.935c-0.482,17.502-0.375,35.03-0.036,52.54
		c0.138,7.128-2.308,10.063-9.6,9.739C364.006,267.638,354.591,267.954,345.194,267.958z"/>
	<path fill-rule="evenodd" clip-rule="evenodd" d="M236.266,267.95c-8.974,0-17.954-0.236-26.916,0.077
		c-6.496,0.229-9.237-2.119-9.13-8.875c0.286-17.941,0.227-35.893,0.019-53.834c-0.073-6.167,1.504-9.556,8.553-9.445
		c18.368,0.29,36.748,0.214,55.116,0.031c5.91-0.058,8.51,2.119,8.449,8.214c-0.185,18.371-0.253,36.748,0.037,55.116
		c0.108,6.84-2.807,9.006-9.212,8.79C254.219,267.725,245.237,267.95,236.266,267.95z"/>
</g>
</svg>
