<?xml version="1.0" encoding="utf-8"?>
<!-- Generator: Adobe Illustrator 16.0.0, SVG Export Plug-In . SVG Version: 6.00 Build 0)  -->
<!DOCTYPE svg PUBLIC "-//W3C//DTD SVG 1.1//EN" "http://www.w3.org/Graphics/SVG/1.1/DTD/svg11.dtd">
<svg version="1.1" id="Layer_1" xmlns="http://www.w3.org/2000/svg" xmlns:xlink="http://www.w3.org/1999/xlink" x="0px" y="0px"
	 width="480px" height="480px" viewBox="0 0 480 480" enable-background="new 0 0 480 480" xml:space="preserve">
<g>
	<path fill-rule="evenodd" clip-rule="evenodd" stroke="#000000" stroke-width="0.8" stroke-miterlimit="10" d="M295.853,467.765
		c-1.393-34.836-6.35-69.204-10.023-103.728c-5.02-47.188-10.241-94.377-15.183-141.597c-1.532-14.455,0.407-18.356,11.946-20.483
		c22.421-4.127,45.015-7.004,67.483-10.898c9.101-1.571,11.93,3.549,12.946,13.274c4.472,42.608,9.304,85.184,13.932,127.759
		c3.549,32.805,6.974,65.64,10.538,98.428c2.049,18.825,0.078,22.546-15.729,25.408c-16.715,3.002-33.523,5.253-50.284,7.802
		c-4.8,0.72-9.632,1.251-14.01,4.034C303.592,467.765,299.714,467.765,295.853,467.765z"/>
	<path fill-rule="evenodd" clip-rule="evenodd" stroke="#000000" stroke-width="0.8" stroke-miterlimit="10" d="M186.191,467.765
		c0.007-77.771,0-155.544,0.007-233.323c0-5.222,0.141-10.453,0.117-15.667c-0.047-10.648,4.136-16.215,13.166-16.222
		c8.693-0.008,17.395-0.273,26.08-0.117c16.511,0.304,18.521,2.51,18.654,21.983c0.195,28.442,0.07,56.875,0.07,85.316
		c0.008,43.53,0,87.061-0.008,130.604c0,9.288,0.204,18.606-2.9,27.426C222.989,467.765,204.586,467.765,186.191,467.765z"/>
	<path fill-rule="evenodd" clip-rule="evenodd" stroke="#000000" stroke-width="0.8" stroke-miterlimit="10" d="M170.219,20.959
		c0.007,15.69,0.273,31.404-0.039,47.094c-0.32,15.69-2.596,18.599-15.229,18.998c-14.017,0.453-28.058,0.453-42.083,0.007
		c-12.642-0.406-14.893-3.292-15.206-19.005c-0.313-15.69-0.07-31.404-0.063-47.094C121.803,20.959,146.007,20.959,170.219,20.959z"
		/>
	<path fill-rule="evenodd" clip-rule="evenodd" stroke="#000000" stroke-width="0.8" stroke-miterlimit="10" d="M97.599,181.53
		c18.379,0.008,36.759-0.195,55.139,0.117c14.823,0.235,17.308,2.862,17.34,20.069c0.18,80.797,0.18,161.603,0,242.377
		c-0.032,17.199-2.517,19.825-17.348,20.076c-18.38,0.281-36.752,0.094-55.139,0.094C97.599,370.025,97.599,275.789,97.599,181.53z"
		/>
	<path fill-rule="evenodd" clip-rule="evenodd" stroke="#000000" stroke-width="0.8" stroke-miterlimit="10" d="M334.815,56.225
		c7.256-0.945,12.541,3.104,13.728,13.939c2.189,20.116,4.534,40.2,6.803,60.299c0.984,8.702-2.971,13.432-9.491,14.487
		c-23.892,3.901-47.814,7.443-71.736,10.891c-5.645,0.813-9.444-2.9-10.57-9.335c-3.955-22.132-5.456-44.679-7.356-67.139
		c-0.648-7.606,3.886-11.477,9.843-12.423C288.503,63.379,310.987,59.932,334.815,56.225z"/>
	<path fill-rule="evenodd" clip-rule="evenodd" stroke="#000000" stroke-width="0.8" stroke-miterlimit="10" d="M244.098,110.646
		c0,9.295,0.039,18.599-0.023,27.902c-0.063,10.038-4.495,14.87-12.696,14.917c-10.64,0.055-21.288,0.055-31.936,0.023
		c-8.036-0.016-12.947-4.315-13.001-14.533c-0.094-19.185-0.079-38.378-0.023-57.555c0.016-10.046,4.487-14.877,12.688-14.917
		c10.648-0.063,21.288-0.016,31.936-0.054c9.084-0.016,13.181,5.676,13.134,16.3c-0.047,9.303-0.016,18.606-0.016,27.917
		C244.137,110.646,244.113,110.646,244.098,110.646z"/>
	<path fill-rule="evenodd" clip-rule="evenodd" stroke="#000000" stroke-width="0.8" stroke-miterlimit="10" d="M134.249,153.417
		c-8.225,0-16.44,0.257-24.649-0.095c-5.63-0.234-11.04-2.017-10.844-10.64c0.164-7.514,5.073-9.553,10.155-9.639
		c16.433-0.289,32.866-0.313,49.307-0.055c5.605,0.079,11.133,1.963,10.804,10.608c-0.329,8.569-6.082,9.593-11.571,9.804
		c-7.723,0.29-15.471,0.07-23.203,0.07C134.249,153.456,134.249,153.441,134.249,153.417z"/>
	<line fill="none" stroke="#000000" stroke-width="0.8" stroke-miterlimit="10" x1="97.591" y1="75.067" x2="97.591" y2="190.779"/>
	<line fill="none" stroke="#000000" stroke-width="0.8" stroke-miterlimit="10" x1="169.03" y1="79.374" x2="169.03" y2="189.521"/>
	<line stroke="#000000" stroke-width="0.8" stroke-miterlimit="10" x1="186.378" y1="143.184" x2="186.378" y2="216.648"/>
	<line stroke="#000000" stroke-width="0.8" stroke-miterlimit="10" x1="243.073" y1="145.513" x2="243.073" y2="214.255"/>
	<line stroke="#000000" stroke-width="0.8" stroke-miterlimit="10" x1="263.548" y1="146.506" x2="270.193" y2="216.648"/>
	<line stroke="#000000" stroke-width="0.8" stroke-miterlimit="10" x1="355.346" y1="130.463" x2="361.662" y2="197.369"/>
</g>
</svg>
