<?xml version="1.0" encoding="utf-8"?>
<!-- Generator: Adobe Illustrator 16.0.0, SVG Export Plug-In . SVG Version: 6.00 Build 0)  -->
<!DOCTYPE svg PUBLIC "-//W3C//DTD SVG 1.1//EN" "http://www.w3.org/Graphics/SVG/1.1/DTD/svg11.dtd">
<svg version="1.1" id="Layer_1" xmlns="http://www.w3.org/2000/svg" xmlns:xlink="http://www.w3.org/1999/xlink" x="0px" y="0px"
	 width="480px" height="480px" viewBox="0 0 480 480" enable-background="new 0 0 480 480" xml:space="preserve">
<g>
	<path fill-rule="evenodd" clip-rule="evenodd" d="M231.614,289.253c-46.138-6.726-101.804-14.696-157.39-23.2
		c-4.778-0.733-10.276-4.016-13.274-7.82c-10.988-13.933-19.74-29.818-31.757-42.71C5.901,190.531,9.819,176.369,40.452,162.23
		c44.588-20.581,90.044-40.932,130.634-68.1c49.107-32.872,91.313-34.139,141.155-0.724c42.834,28.717,91.762,48.401,138.237,71.592
		c16.883,8.426,22.101,22.068,11.198,37.682c-7.194,10.305-20.953,17.629-24.466,28.622c-14.172,44.351-52.928,40.579-86.091,45.783
		C315.003,282.753,278.301,284.688,231.614,289.253z M242.974,155.723c-21.935-0.336-44.755,14.817-44.502,29.553
		c0.428,25.022,24.527,58.72,42.622,59.594c18.807,0.909,44.459-33.532,44.524-59.777
		C285.653,170.955,264.003,156.048,242.974,155.723z"/>
	<path fill-rule="evenodd" clip-rule="evenodd" d="M63.306,301.31c120.179,29.28,237.459,28.23,355.236,0.308
		c-11.186,58.216-92.956,118.944-164.77,124.603C177.02,432.267,92.327,378.227,63.306,301.31z"/>
</g>
</svg>
