<?xml version="1.0" encoding="utf-8"?>
<!-- Generator: Adobe Illustrator 16.0.0, SVG Export Plug-In . SVG Version: 6.00 Build 0)  -->
<!DOCTYPE svg PUBLIC "-//W3C//DTD SVG 1.1//EN" "http://www.w3.org/Graphics/SVG/1.1/DTD/svg11.dtd">
<svg version="1.1" id="Layer_1" xmlns="http://www.w3.org/2000/svg" xmlns:xlink="http://www.w3.org/1999/xlink" x="0px" y="0px"
	 width="480px" height="480px" viewBox="0 0 480 480" enable-background="new 0 0 480 480" xml:space="preserve">
<g>
	<path fill-rule="evenodd" clip-rule="evenodd" d="M241.412,23.993c68.053,0,136.105-0.004,204.158,0.003
		c13.183,0.001,19.38,6.165,19.382,19.479c0.023,107.115,0.021,214.229,0.004,321.345c-0.002,14.986-6.786,21.856-21.614,21.871
		c-37.842,0.035-75.684,0-113.524,0.021c-9.447,0.004-9.447,0.052-9.567,9.49c-0.252,19.852-11.313,30.808-31.126,30.812
		c-31.434,0.005-62.865,0.014-94.298-0.005c-17.694-0.011-28.4-10.621-28.45-28.127c-0.005-2.136-0.138-4.281,0.014-6.406
		c0.311-4.4-1.772-5.928-5.993-5.813c-6.709,0.185-13.427,0.04-20.14,0.04c-33.264-0.001-66.528,0.013-99.792-0.006
		c-15.641-0.009-22.454-6.644-22.455-21.951c-0.016-106.81-0.015-213.62-0.002-320.43c0.002-14.957,5.355-20.321,20.16-20.322
		C105.916,23.99,173.663,23.993,241.412,23.993z M242.137,284.122c57.384,0,114.768,0.005,172.15-0.005
		c10.353-0.001,10.376-0.027,10.377-10.521c0.007-68.066,0.007-136.132,0-204.199c-0.001-10.556-0.022-10.584-10.311-10.585
		C298.976,58.805,183.6,58.804,68.222,58.814c-9.881,0.001-9.915,0.039-9.917,10.06c-0.011,68.373-0.011,136.743,0,205.114
		c0.001,10.086,0.035,10.125,9.852,10.128C126.151,284.128,184.145,284.122,242.137,284.122z M243.926,361.063
		c11.659,0.045,19.41-7.478,19.537-18.967c0.119-10.719-8.587-18.992-19.607-19.6c-13.26-0.73-19.349,9.97-20.435,19.898
		C222.382,351.899,233.021,361.021,243.926,361.063z"/>
	<path fill-rule="evenodd" clip-rule="evenodd" fill="#FFFFFF" d="M242.137,284.122c-57.992,0-115.986,0.006-173.979-0.006
		c-9.817-0.003-9.851-0.042-9.852-10.128c-0.011-68.371-0.011-136.742,0-205.114c0.002-10.021,0.036-10.059,9.917-10.06
		c115.377-0.01,230.753-0.009,346.131-0.002c10.288,0.001,10.31,0.03,10.311,10.585c0.007,68.067,0.007,136.133,0,204.199
		c-0.001,10.493-0.024,10.52-10.377,10.521C356.904,284.127,299.521,284.122,242.137,284.122z"/>
</g>
</svg>
