<?xml version="1.0" encoding="utf-8"?>
<!-- Generator: Adobe Illustrator 16.0.0, SVG Export Plug-In . SVG Version: 6.00 Build 0)  -->
<!DOCTYPE svg PUBLIC "-//W3C//DTD SVG 1.1//EN" "http://www.w3.org/Graphics/SVG/1.1/DTD/svg11.dtd">
<svg version="1.1" id="Layer_1" xmlns="http://www.w3.org/2000/svg" xmlns:xlink="http://www.w3.org/1999/xlink" x="0px" y="0px"
	 width="480px" height="480px" viewBox="0 0 480 480" enable-background="new 0 0 480 480" xml:space="preserve">
<g>
	<path fill-rule="evenodd" clip-rule="evenodd" d="M239.303,275.728c-33.463,0-66.928,0.016-100.393-0.017
		c-5.576-0.003-11.161-0.077-16.728-0.346c-41.264-2.008-44.859-5.063-44.103-45.26c0.733-38.921,2.97-77.813,4.536-116.721
		c0.114-2.784,0.987-5.905,0.041-8.289c-1.767-4.443-4.14-11.593-7.104-12.04c-7.657-1.153-7.573,6.076-7.671,11.612
		c-0.169,9.294-0.046,18.591-0.123,27.888c-0.044,5.571,0.313,11.22-0.471,16.698c-1.643,11.49-8.622,18.312-20.136,19.734
		c-10.692,1.32-20.265-4.375-21.4-17.037c-2.053-22.939-1.923-46.192-0.948-69.24c0.523-12.335,10.299-17.447,21.95-15.366
		c6.87,1.226,13.342,5.031,19.807,8.071c10.577,4.972,15.442,3.52,16.265-8.515c0.979-14.307,9.344-21.117,20.014-27.755
		c24.2-15.052,51.476-22.686,78.76-25.723c57.123-6.363,114.565-7.679,169.61,14.258c8.573,3.416,17.135,7.106,25.118,11.688
		c11.363,6.521,21.795,13.5,21.281,29.667c-0.366,11.534,8.07,10.384,15.622,6.587c4.062-2.043,7.289-6.113,11.476-7.458
		c18.32-5.893,28.371,1.209,28.827,20.547c0.458,19.509,0.477,39.049-0.061,58.559c-0.397,14.459-5.623,20.624-16.316,21.665
		c-12.482,1.214-23.175-7.295-24.214-21.272c-1.102-14.796,0.011-29.751-0.779-44.587c-0.19-3.588-3.557-9.425-6.341-10
		c-8.103-1.67-8.471,5.312-8.094,10.806c1.015,14.765,3.447,29.469,3.783,44.231c0.754,33.451,0.455,66.924,0.858,100.386
		c0.158,13.063-4.367,21.297-18.616,22.545c-11.014,0.964-21.921,4.146-32.904,4.312c-37.176,0.558-74.364,0.213-111.544,0.213
		C239.306,275.622,239.306,275.676,239.303,275.728z M233.062,157.501c0-24.117-0.164-48.237,0.082-72.351
		c0.095-9.55-1.539-15.895-13.487-15.715c-33.385,0.504-66.79-0.196-100.177,0.371c-14.857,0.25-17.262,3.097-17.788,18.616
		c-0.599,17.603-0.177,35.244-0.172,52.869c0.011,28.755-0.294,57.519,0.215,86.265c0.237,13.22,9.12,17.827,20.046,10.885
		c4.62-2.937,8.36-7.309,12.343-11.191c16.611-16.178,32.672-32.969,49.958-48.387c7.726-6.892,10.979-13.84,10.613-23.917
		c-0.436-12.006,0.256-24.075,1.043-36.077c0.111-1.73,3.462-4.466,5.369-4.514c1.894-0.046,5.424,2.61,5.535,4.258
		c0.802,12.002,1.221,24.05,1.185,36.083c-0.054,19.458-0.414,38.918-1.092,58.362c-0.063,1.727-3.351,4.563-5.255,4.664
		c-1.884,0.098-5.339-2.381-5.633-4.14c-1.057-6.353-1.011-12.886-1.504-19.339c-0.447-5.856-3.637-5.56-6.663-2.217
		c-12.433,13.729-24.914,27.435-36.726,41.689c-5.503,6.639,1.002,7.41,5.424,7.423c21.332,0.055,42.669-0.405,64.002-0.302
		c9.722,0.049,12.83-4.731,12.731-13.764C232.862,203.883,233.029,180.69,233.062,157.501z M252.213,155.291
		c-0.022,0-0.045,0-0.066,0c0,18.595-0.289,37.197,0.125,55.783c0.202,8.91,1.734,17.788,2.668,26.68
		c7.776-2.85,15.477-5.933,23.355-8.474c6.155-1.984,12.502-3.397,18.812-4.876c5.873-1.378,11.803-2.508,17.709-3.748
		c-3.38-5.391-6.554-10.929-10.225-16.116c-2.126-3.004-4.897-5.617-7.662-8.084c-2.693-2.403-5.749-4.396-8.646-6.571
		c-0.799,3.209-1.789,6.386-2.351,9.635c-0.928,5.39-1.361,10.877-2.533,16.206c-0.229,1.045-2.866,2.158-4.389,2.154
		c-1.476-0.002-3.854-1.092-4.249-2.25c-1.174-3.413-2.141-7.096-2.166-10.679c-0.169-26.034-0.169-52.067,0.019-78.098
		c0.027-3.566,1.101-7.229,2.327-10.615c0.403-1.109,2.862-2.096,4.325-2.022c1.519,0.077,3.669,1.155,4.296,2.414
		c1.19,2.386,2.515,5.438,2.002,7.829c-8.261,38.542,12.041,62.972,40.685,83.452c2.241,1.602,3.767,4.221,6.034,5.767
		c12.155,8.265,23.99,17.147,36.817,24.222c9.887,5.457,14.25,2.827,14.339-7.927c0.396-46.483,0.581-92.98-0.031-139.461
		c-0.194-14.707-6.132-20.409-20.527-20.686c-32.53-0.626-65.08-0.027-97.621-0.308c-9.553-0.082-13.244,3.89-13.14,13.253
		C252.392,106.942,252.213,131.119,252.213,155.291z"/>
	<path fill-rule="evenodd" clip-rule="evenodd" d="M348.79,460.472c-3.71,0-7.428,0.125-11.134-0.021
		c-21.067-0.832-25.296-3.384-25.083-23.978c0.249-23.794-5.774-21.952-21.867-21.898c-34.33,0.117-68.663-0.172-102.989,0.125
		c-18.158,0.155-18.156,0.554-19.583,18.138c-2.056,25.314-3.696,27.787-27.562,27.437c-31.521-0.466-44.751,10.391-45.22-38.646
		c-0.024-2.745,0.134-6.115-1.296-8.126c-14.732-20.7-9.869-44.483-11.217-67.344c-1.033-17.513-3.062-34.969-4.277-52.477
		c-0.768-11.07,5.571-15.195,15.704-13.513c59.873,9.929,120.226,5.329,180.36,5.48c36.912,0.09,73.839-3.436,110.751-5.53
		c13.146-0.746,16.578,2.672,15.751,15.862c-1.445,23.068-2.965,46.137-3.738,69.232c-0.563,16.744-0.515,32.854-11.991,47.379
		c-4.418,5.593-3.712,15.7-4.213,23.821c-1.385,22.364-2.05,23.295-24.046,24.046C354.359,460.554,351.575,460.472,348.79,460.472z
		 M149.736,369.162c4.645,0,9.289-0.09,13.928,0.019c8.494,0.194,14.351-2.086,14.408-12.274
		c0.048-8.761-2.452-13.996-12.231-14.675c-10.114-0.702-20.15-2.541-30.217-3.899c-8.421-1.137-15.002,1.118-16.546,10.391
		c-1.537,9.222,0.953,17.042,11.237,19.124C136.614,369.123,143.242,368.773,149.736,369.162z M330.896,368.993
		c3.869-0.176,11.374,0.106,18.671-0.983c10.365-1.548,13.419-9.009,12.106-18.435c-1.283-9.215-6.767-11.874-15.923-10.346
		c-10.912,1.822-22.049,2.362-33.096,3.323c-8.626,0.749-10.141,6.487-10.176,13.651c-0.035,7.545,2.52,12.645,10.945,12.775
		C318.062,369.053,322.705,368.993,330.896,368.993z"/>
	<path fill-rule="evenodd" clip-rule="evenodd" fill="#FFFFFF" d="M149.73,369.157c-6.489-0.384-13.117-0.034-19.417-1.311
		c-10.284-2.082-12.773-9.902-11.237-19.124c1.544-9.272,8.125-11.527,16.546-10.391c10.067,1.358,20.104,3.197,30.217,3.899
		c9.779,0.679,12.28,5.914,12.231,14.675c-0.058,10.188-5.915,12.469-14.408,12.274C159.025,369.072,154.381,369.162,149.73,369.157
		z"/>
	<path fill-rule="evenodd" clip-rule="evenodd" fill="#FFFFFF" d="M330.896,368.993c-8.19,0-12.834,0.06-17.472-0.014
		c-8.426-0.131-10.98-5.23-10.945-12.775c0.035-7.164,1.55-12.902,10.176-13.651c11.047-0.961,22.184-1.501,33.096-3.323
		c9.156-1.528,14.64,1.131,15.923,10.346c1.313,9.426-1.741,16.887-12.106,18.435C342.27,369.1,334.765,368.817,330.896,368.993z"/>
</g>
</svg>
